# xmcd CD database file
#
# Track frame offsets:
#	150
#	36467
#	62020
#	68222
#	81427
#	98435
#	107172
#	125642
#	143665
#	158245
#	165630
#	180885
#	191675
#	209809
#	215590
#	230217
#	256717
#
# Disc length: 3668 seconds
#
# Revision: 0
# Processed by: cddbd v1.5.1PL0 Copyright (c) Steve Scherf et al.
# Submitted via: CDex 1.51
#
DISCID=f90e5211
DTITLE=Various Artist - MOETORA -anime trance01-
DYEAR=2005
DGENRE=Trance
TTITLE0=愛をとりもどせ！！
TTITLE1=残酷な天使のテーゼ
TTITLE2=宇宙戦艦ヤマト
TTITLE3=CHA-LA HEAD-CHA-LA
TTITLE4=マクロス
TTITLE5=はじめてのチュウ
TTITLE6=タッチ
TTITLE7=天才バカボン
TTITLE8=ガッチャマンの歌
TTITLE9=キューティーハニー
TTITLE10=マジンガーZ
TTITLE11=ウルトラセブンの歌
TTITLE12=ドラえもんのうた
TTITLE13=忍者ハットリくん
TTITLE14=ゲゲゲの鬼太郎
TTITLE15=WE GOTTA POWER
TTITLE16=アンバランスなKissをして
EXTD=YEAR: 2005
EXTT0=
EXTT1=
EXTT2=
EXTT3=
EXTT4=
EXTT5=
EXTT6=
EXTT7=
EXTT8=
EXTT9=
EXTT10=
EXTT11=
EXTT12=
EXTT13=
EXTT14=
EXTT15=
EXTT16=
PLAYORDER=
